<?xml version="1.0" standalone="no"?><!DOCTYPE svg PUBLIC "-//W3C//DTD SVG 1.1//EN" "http://www.w3.org/Graphics/SVG/1.1/DTD/svg11.dtd"><svg t="1609311315026" class="icon" viewBox="0 0 1024 1024" version="1.1" xmlns="http://www.w3.org/2000/svg" p-id="2543" xmlns:xlink="http://www.w3.org/1999/xlink" width="400" height="400"><defs><style type="text/css"></style></defs><path d="M655.36 637.44c17.92 0 30.72-15.36 30.72-30.72 0-17.92-12.8-33.28-30.72-33.28h-84.48l84.48-133.12c10.24-15.36 5.12-35.84-7.68-43.52-15.36-10.24-33.28-5.12-43.52 7.68l-89.6 140.8-89.6-140.8c-10.24-15.36-28.16-17.92-43.52-7.68-15.36 10.24-17.92 28.16-7.68 43.52l84.48 133.12h-81.92c-17.92 0-30.72 15.36-30.72 33.28 0 17.92 12.8 30.72 30.72 30.72h107.52V691.2h-107.52c-17.92 0-30.72 15.36-30.72 33.28s12.8 30.72 30.72 30.72h107.52v81.92c0 17.92 12.8 30.72 30.72 30.72s30.72-15.36 30.72-30.72v-81.92h107.52c17.92 0 30.72-12.8 30.72-30.72s-12.8-33.28-28.16-33.28h-107.52v-53.76h107.52z" p-id="2544"></path><path d="M729.6 0h-435.2C186.88 0 97.28 87.04 97.28 194.56V819.2c0 135.68 64 204.8 192 204.8h442.88c128 0 192-69.12 192-204.8V194.56c2.56-107.52-84.48-194.56-194.56-194.56z m135.68 819.2c0 99.84-38.4 140.8-130.56 140.8H289.28c-94.72 0-130.56-38.4-130.56-140.8V194.56c0-71.68 58.88-130.56 135.68-130.56h435.2c74.24 0 135.68 58.88 135.68 130.56V819.2z" p-id="2545"></path><path d="M734.72 163.84c-209.92 117.76-437.76 0-437.76 0-15.36-7.68-33.28-2.56-40.96 12.8-7.68 15.36-2.56 35.84 12.8 43.52 5.12 5.12 115.2 61.44 258.56 61.44 74.24 0 156.16-15.36 238.08-61.44 15.36-7.68 20.48-28.16 12.8-43.52-10.24-15.36-28.16-20.48-43.52-12.8z" p-id="2546"></path></svg>