<?xml version="1.0" standalone="no"?><!DOCTYPE svg PUBLIC "-//W3C//DTD SVG 1.1//EN" "http://www.w3.org/Graphics/SVG/1.1/DTD/svg11.dtd"><svg t="1609313382203" class="icon" viewBox="0 0 1024 1024" version="1.1" xmlns="http://www.w3.org/2000/svg" p-id="3518" xmlns:xlink="http://www.w3.org/1999/xlink" width="400" height="400"><defs><style type="text/css"></style></defs><path d="M511.2 949.8c-59.6 0-117.5-11.7-171.9-34.7-52.7-22.3-99.9-54.1-140.6-94.8-40.6-40.6-72.5-87.9-94.8-140.5-23.1-54.5-34.8-112.4-34.8-172.1S80.9 390.1 104 335.6c22.3-52.7 54.2-99.9 94.8-140.6 40.6-40.6 87.9-72.5 140.6-94.8 54.5-23.1 112.4-34.8 172.1-34.8 59.7 0 117.6 11.7 172.1 34.8 52.7 22.3 99.9 54.2 140.6 94.8s72.5 87.9 94.8 140.6c23.1 54.5 34.8 112.4 34.8 172.1 0 84-23.6 165.7-68.3 236.2-4.7 7.5-14.6 9.7-22.1 5-7.5-4.7-9.7-14.6-5-22.1 41.4-65.4 63.3-141.1 63.3-219 0-55.4-10.8-109.1-32.2-159.7-20.7-48.8-50.2-92.7-87.9-130.4s-81.5-67.3-130.4-87.9c-50.6-21.4-104.3-32.2-159.7-32.2-55.4 0-109.1 10.8-159.7 32.2-48.8 20.7-92.7 50.3-130.4 87.9-37.7 37.7-67.3 81.6-87.9 130.4-21.4 50.6-32.2 104.3-32.2 159.6 0 55.4 10.8 109.1 32.2 159.6 20.7 48.8 50.2 92.7 87.9 130.4s81.5 67.3 130.4 87.9c50.5 21.4 104.2 32.2 159.5 32.2h0.2c47.8 0 94.6-8.1 139.1-24.2 43-15.5 82.9-38 118.6-66.9 6.9-5.6 16.9-4.5 22.5 2.4 5.6 6.9 4.5 16.9-2.4 22.5-38.5 31.1-81.6 55.4-127.9 72.1-48 17.3-98.4 26-149.9 26-0.2 0.1-0.2 0.1-0.3 0.1z" fill="" p-id="3519"></path><path d="M360.9 433.9m-50 0a50 50 0 1 0 100 0 50 50 0 1 0-100 0Z" fill="" p-id="3520"></path><path d="M659.4 433.9m-50 0a50 50 0 1 0 100 0 50 50 0 1 0-100 0Z" fill="" p-id="3521"></path><path d="M518.4 745.1c-49.5 0-98.5-18.1-142-52.5-33-26.1-51.2-52.3-51.9-53.4-5-7.3-3.2-17.2 4.1-22.3 7.3-5 17.2-3.2 22.2 4.1 0.2 0.2 16.8 23.9 46.2 47.1 38.6 30.3 80 45.5 123 45h0.2c0.2 0 26.8-0.3 59.3-11.8 42.7-15.2 75.2-41.8 96.7-79.1 4.4-7.7 14.2-10.3 21.8-5.9 7.7 4.4 10.3 14.2 5.9 21.8-25.2 43.9-65 76.3-114.9 93.7-36.8 12.9-66.5 13.3-68.8 13.3h-1.8z" fill="" p-id="3522"></path></svg>