<?xml version="1.0" standalone="no"?><!DOCTYPE svg PUBLIC "-//W3C//DTD SVG 1.1//EN" "http://www.w3.org/Graphics/SVG/1.1/DTD/svg11.dtd"><svg t="1609313797105" class="icon" viewBox="0 0 1024 1024" version="1.1" xmlns="http://www.w3.org/2000/svg" p-id="5118" xmlns:xlink="http://www.w3.org/1999/xlink" width="400" height="400"><defs><style type="text/css"></style></defs><path d="M562.048 365.824h124.928v155.52h-124.928z" fill="#F4BD50" p-id="5119"></path><path d="M858.88 32.256H165.12c-69.76 0-126.976 57.088-126.976 126.976v693.76c0 69.76 57.088 126.976 126.976 126.976h693.76c69.76 0 126.976-57.088 126.976-126.976v-693.76c0-69.888-57.088-126.976-126.976-126.976zM525.824 171.392c27.776 33.28 52.736 64.896 75.008 94.464l-63.872 33.28c-20.352-31.488-43.52-62.976-69.376-94.464l58.24-33.28zM264.832 826.88c-16.64 1.792-38.912 2.816-66.688 2.816L184.32 760.192h50.048c22.272 1.792 32.384-8.32 30.592-30.592V574.208l-83.328 24.96-5.504-80.512c7.424-1.792 20.352-4.608 38.912-8.32 22.272-5.504 38.912-9.216 50.048-11.136V360.32h-77.824v-66.688h77.824v-116.608h69.376v116.608H398.08v66.688h-63.872v119.424c22.272-5.504 44.416-11.136 66.688-16.64v72.192l-66.688 19.456v197.248c1.92 49.92-21.248 74.88-69.376 74.88z m583.168-238.848h-88.832v244.352h-72.192V588.032h-127.744c-1.92 98.176-42.624 182.4-122.24 252.672-7.424-7.424-20.352-19.456-38.912-36.096-9.344-7.424-15.744-12.928-19.456-16.64 68.48-53.632 104.576-120.32 108.288-199.936h-80.512v-66.688h83.328V365.824h-61.056v-63.872h225.024c31.488-51.84 56.448-95.36 75.008-130.56l69.376 27.776c-9.344 11.136-22.272 29.696-38.912 55.552-12.928 20.48-23.168 36.096-30.592 47.232h102.784v63.872h-72.192v155.52h88.832v66.688z" fill="#F4BD50" p-id="5120"></path></svg>